<svg width="60" height="58" viewBox="0 0 60 58" fill="none" xmlns="http://www.w3.org/2000/svg">
<g id="Frame" clip-path="url(#clip0_5_92)">
<path id="Vector" d="M20.3721 58C19.3058 57.6641 18.4933 57.0725 18.2517 55.9271C18.1933 55.6533 18.1748 55.3658 18.1748 55.0844C18.1717 37.6766 18.1702 20.2689 18.1732 2.8612C18.1732 1.32847 19.135 0.205787 20.5829 0.0196812C21.9032 -0.149781 23.1895 0.715687 23.5265 2.02751C23.6004 2.31499 23.6112 2.62516 23.6112 2.92475C23.6142 20.2946 23.6158 37.6645 23.6142 55.0344C23.6142 56.6398 23.1095 57.307 21.4077 57.9985C21.0645 58 20.7183 58 20.3721 58Z" fill="white"/>
<path id="Vector_2" d="M59.3069 31.2658C58.9715 32.2871 58.3944 33.0678 57.265 33.3447C55.5739 33.7593 53.9798 32.679 53.8859 30.9677C53.8167 29.7088 53.8367 28.4424 53.8674 27.1805C53.8998 25.849 54.8769 24.7823 56.1602 24.5962C57.462 24.4071 58.6914 25.1364 59.1592 26.3756C59.2053 26.4966 59.2592 26.6146 59.3084 26.7342C59.3069 28.2442 59.3069 29.7542 59.3069 31.2658Z" fill="white"/>
<path id="Vector_3" d="M27.0733 28.9871C27.0733 23.5704 27.0703 18.1521 27.0749 12.7354C27.0764 11.0756 28.1951 9.87269 29.7384 9.84394C31.2541 9.8152 32.442 10.894 32.5559 12.4086C32.5666 12.5584 32.5636 12.7097 32.5636 12.861C32.5636 23.6007 32.5651 34.3418 32.5605 45.0815C32.5605 45.4008 32.5343 45.7246 32.4759 46.0363C32.2297 47.3254 31.1756 48.1576 29.8123 48.1561C28.4536 48.1545 27.4026 47.3193 27.1595 46.0242C27.098 45.6928 27.0764 45.3493 27.0764 45.0119C27.0718 39.6708 27.0718 34.3297 27.0733 28.9871Z" fill="white"/>
<path id="Vector_4" d="M44.9196 28.9706C44.9196 23.5357 44.915 18.1008 44.9227 12.6659C44.9243 10.9621 46.1614 9.77591 47.8248 9.84703C49.0312 9.89847 50.1114 10.8139 50.3237 11.982C50.3776 12.277 50.3945 12.5826 50.3945 12.8822C50.3976 23.6204 50.3976 34.3585 50.396 45.0967C50.396 46.6249 49.779 47.616 48.5957 48.0154C46.7246 48.6463 44.9566 47.392 44.9258 45.3902C44.9027 43.8999 44.9212 42.408 44.9212 40.9176C44.9196 36.9338 44.9196 32.9529 44.9196 28.9706Z" fill="white"/>
<path id="Vector_5" d="M14.7172 29.0129C14.7172 32.788 14.7218 36.5615 14.7156 40.3366C14.7126 41.9435 13.857 42.9905 12.3752 43.2296C10.915 43.4656 9.53932 42.4958 9.31004 41.0568C9.26542 40.7784 9.24388 40.494 9.24388 40.2125C9.2408 32.7199 9.23926 25.2272 9.24234 17.7361C9.24234 16.2185 10.004 15.1563 11.3043 14.8356C13.0969 14.3922 14.708 15.6753 14.7141 17.5772C14.7249 21.3886 14.7172 25.2015 14.7172 29.0129Z" fill="white"/>
<path id="Vector_6" d="M41.4621 28.9765C41.4621 31.2022 41.4806 33.4294 41.4559 35.6551C41.4375 37.3694 40.1095 38.4936 38.3831 38.309C37.0505 38.1668 36.078 37.1561 36.0349 35.8004C35.998 34.5945 36.0196 33.3856 36.0196 32.1781C36.0196 28.8766 36.0119 25.5752 36.0272 22.2737C36.0334 21.1162 36.7751 20.163 37.8753 19.7983C38.9401 19.4458 40.1141 19.7726 40.8404 20.6335C41.2882 21.1631 41.4713 21.7789 41.4682 22.4673C41.459 24.6371 41.4652 26.8068 41.4652 28.9765C41.4621 28.9765 41.4621 28.9765 41.4621 28.9765Z" fill="white"/>
<path id="Vector_7" d="M5.7679 29.0008C5.7679 29.6423 5.80175 30.2854 5.76174 30.9239C5.66788 32.3976 4.56922 33.4113 3.09664 33.4235C1.59483 33.4356 0.422307 32.4173 0.353064 30.9375C0.291514 29.6393 0.294592 28.3335 0.351525 27.0338C0.413075 25.6418 1.65484 24.569 3.08433 24.5751C4.4969 24.5827 5.6725 25.6358 5.76174 27.0202C5.80329 27.6784 5.7679 28.3411 5.7679 29.0008Z" fill="white"/>
</g>
<defs>
<clipPath id="clip0_5_92">
<rect width="59" height="58" fill="white" transform="translate(0.306885)"/>
</clipPath>
</defs>
</svg>
