<svg width="89" height="83" viewBox="0 0 89 83" fill="none" xmlns="http://www.w3.org/2000/svg">
<g id="Frame" opacity="0.6" clip-path="url(#clip0_5_211)">
<path id="Vector" d="M5.4241 58.4864C4.31239 58.4841 3.19608 58.4474 2.08666 58.491C1.40218 58.5162 0.866994 58.3192 0.446655 57.7924C0.446655 51.5077 0.446655 45.2253 0.446655 38.9405C0.906041 38.4275 1.4573 38.2168 2.16706 38.2282C3.2535 38.2443 4.33995 38.1504 5.4264 38.1023C5.4264 44.8977 5.4264 51.6909 5.4241 58.4864Z" fill="black"/>
<path id="Vector_2" d="M44.4651 23.6868C48.0161 23.6868 51.5672 23.7418 55.1159 23.6708C58.3362 23.6044 60.8031 24.9854 62.7394 27.404C65.0042 30.2303 66.2308 33.5262 66.8463 37.0625C67.5216 40.9423 67.7376 44.8222 66.7797 48.6906C66.5684 49.5472 66.2423 50.3671 65.7829 51.1275C64.5287 53.2026 62.3995 53.892 60.1715 52.93C58.4947 52.2063 57.2682 50.9328 56.1197 49.5723C55.2905 48.5898 54.4521 47.6164 53.4529 46.7919C52.2379 45.7887 50.8459 45.2871 49.2771 45.2848C46.2704 45.2757 43.2615 45.3421 40.2571 45.2596C37.8499 45.1932 35.9366 46.0841 34.3287 47.7996C33.2331 48.9677 32.2775 50.2572 31.0854 51.3359C30.3412 52.0116 29.5488 52.6116 28.6231 53.0239C26.6547 53.9011 24.8516 53.4614 23.5239 51.7528C22.5179 50.4564 22.0217 48.9288 21.8035 47.3484C21.0226 41.7004 21.5647 36.1898 23.8547 30.9266C25.1456 27.9606 27.1301 25.5786 30.2126 24.2892C31.1681 23.8907 32.1558 23.6708 33.2101 23.6776C36.9633 23.7051 40.7142 23.6868 44.4651 23.6868ZM33.9428 28.4897C32.5325 28.4965 31.4093 29.4768 31.2347 30.9495C31.1796 31.4213 31.0418 31.5404 30.5755 31.5931C29.1124 31.758 27.9363 33.0521 27.9478 34.3988C27.957 35.7043 29.0481 36.8632 30.5296 37.0304C31.0234 37.0854 31.1796 37.1953 31.237 37.7152C31.407 39.2749 32.5991 40.3354 34.0278 40.3102C35.4955 40.2827 36.5682 39.236 36.6968 37.6328C36.7336 37.1861 36.8806 37.0762 37.3101 37.0418C38.8582 36.9205 39.9401 35.8417 39.9746 34.4469C40.0067 33.1001 38.8399 31.7603 37.3928 31.5977C36.8967 31.5427 36.7428 31.4282 36.6831 30.9129C36.5154 29.4562 35.36 28.4805 33.9428 28.4897ZM53.8848 37.0556C52.4928 37.0739 51.2846 38.3313 51.3214 39.7216C51.3604 41.1324 52.5066 42.2089 53.9514 42.1928C55.4697 42.1768 56.5148 41.0866 56.4734 39.5635C56.4344 38.1275 55.3089 37.0373 53.8848 37.0556ZM60.7687 35.3378C60.7664 33.9041 59.6547 32.7795 58.2329 32.7726C56.8754 32.7635 55.6396 33.9613 55.6167 35.3035C55.5937 36.68 56.8478 37.9236 58.2397 37.9122C59.6615 37.8984 60.771 36.7693 60.7687 35.3378ZM53.9284 28.4874C52.5663 28.4828 51.3352 29.6852 51.3191 31.032C51.3053 32.3558 52.4699 33.4483 53.9008 33.4529C55.3732 33.4597 56.4711 32.4314 56.4711 31.0503C56.4711 29.6165 55.3571 28.492 53.9284 28.4874ZM52.0036 35.3676C52.0059 33.9407 50.9332 32.7749 49.6079 32.7726C48.2619 32.768 47.0307 33.9888 47.0238 35.331C47.0169 36.6731 48.2389 37.903 49.5849 37.9122C50.9608 37.919 52.0013 36.8265 52.0036 35.3676Z" fill="white"/>
<path id="Vector_3" d="M23.6296 11.2937C23.6365 9.72255 23.6594 8.15366 23.6434 6.58248C23.6365 5.94576 23.8685 5.52204 24.422 5.18307C29.1675 2.28349 34.3103 0.602371 39.8551 0.199269C44.7797 -0.160316 49.6928 -0.12367 54.5302 1.06731C58.0261 1.92619 61.3061 3.30269 64.4001 5.13955C65.0203 5.5083 65.266 5.96408 65.2546 6.66951C65.2293 8.21091 65.2591 9.75232 65.2637 11.2937C65.2637 12.3015 65.2637 13.3092 65.2614 14.317C65.2546 15.3454 65.2293 16.3714 65.25 17.3998C65.2637 18.1258 65.1833 18.7694 64.4116 19.1038C63.6651 19.4268 63.2195 18.9298 62.7716 18.5037C60.075 15.9363 56.9443 14.1109 53.3909 13.0023C51.1124 12.2923 48.7764 11.9236 46.3899 11.8709C42.6321 11.7862 38.8973 11.8709 35.2727 13.0619C31.8847 14.175 28.8413 15.8698 26.2044 18.277C26.0988 18.3732 25.9931 18.4694 25.8898 18.5679C25.4487 18.9824 24.9365 19.2893 24.3416 19.0214C23.7536 18.7557 23.6388 18.1808 23.6434 17.5716C23.6525 16.4882 23.6342 15.4026 23.6296 14.3193C23.6296 13.3069 23.6296 12.3015 23.6296 11.2937ZM44.4972 4.47993C42.0372 4.45245 39.6139 4.75478 37.1952 5.16704C33.7935 5.7465 30.5617 6.81151 27.5068 8.40559C26.7695 8.79037 26.5559 9.46832 26.905 10.1188C27.2541 10.7715 27.9019 10.9525 28.6484 10.5608C29.9415 9.88516 31.2738 9.29196 32.6588 8.84076C37.3055 7.32913 42.0441 6.64202 46.9549 7.0268C49.9271 7.26042 52.8213 7.7643 55.6557 8.6415C57.2383 9.13163 58.7542 9.79584 60.2358 10.5448C61.1453 11.0051 61.9355 10.6707 62.1101 9.81187C62.2662 9.04002 61.8206 8.60714 61.1706 8.27504C55.9336 5.60908 50.3222 4.58529 44.4972 4.47993Z" fill="white"/>
<path id="Vector_4" d="M70.255 41.3339C69.8783 37.264 72.2877 34.5179 75.3243 33.801C75.4253 33.7781 75.5103 33.6887 75.6045 33.6315C76.4084 33.6223 77.2124 33.6155 78.0163 33.6063C79.3554 33.6132 80.6968 33.6132 82.0359 33.6292C83.0167 33.6406 83.4416 34.0598 83.4554 35.0309C83.4692 36.0547 83.46 37.0785 83.4623 38.1023C83.4623 44.8954 83.4646 51.6909 83.4646 58.4841C83.4623 59.5697 83.4669 60.6553 83.4554 61.7387C83.4462 62.68 83.0489 63.0854 82.0933 63.0991C80.6623 63.1175 79.2291 63.1083 77.7981 63.1129C76.985 63.0739 76.1604 63.193 75.3633 62.9411C71.6561 61.7913 70.0367 59.3475 70.2527 55.2249C71.9064 55.2226 73.5602 55.2226 75.2117 55.218C76.2568 55.2157 76.7208 54.8928 76.7507 54.1507C76.7828 53.3743 76.165 52.8269 75.2117 52.82C73.5579 52.8109 71.9042 52.8132 70.2527 52.8132C70.2527 51.7321 70.2527 50.6488 70.2527 49.5677C71.9064 49.5655 73.5602 49.5655 75.2117 49.5609C76.2568 49.5586 76.7208 49.2356 76.7507 48.4936C76.7828 47.7171 76.165 47.1697 75.2117 47.1629C73.5579 47.1537 71.9042 47.156 70.2527 47.156C70.2527 46.075 70.2527 44.9916 70.2527 43.9106C71.9042 43.9083 73.5579 43.9129 75.2094 43.9037C76.165 43.8968 76.7805 43.3563 76.7507 42.5776C76.7231 41.8286 76.1328 41.3431 75.2094 41.3385C73.5579 41.3316 71.9064 41.3362 70.255 41.3339Z" fill="#F7F8F9"/>
<path id="Vector_5" d="M5.42413 58.4864C5.42413 51.6909 5.42643 44.8977 5.42643 38.1023C5.42873 37.0785 5.41954 36.0547 5.43332 35.0309C5.4471 34.0598 5.87203 33.6406 6.85282 33.6292C8.19193 33.6132 9.53334 33.6132 10.8725 33.6063C11.6764 33.6155 12.4803 33.6223 13.2842 33.6315C13.3784 33.6887 13.4634 33.7689 13.5645 33.8033C17.2533 35.0263 18.8428 37.3831 18.6361 41.3339C16.9846 41.3362 15.3308 41.3316 13.6793 41.3408C12.7559 41.3454 12.1633 41.8332 12.1381 42.5799C12.1105 43.3586 12.7261 43.8991 13.6793 43.906C15.3308 43.9152 16.9846 43.9129 18.6361 43.9129C18.6361 44.9939 18.6361 46.0772 18.6361 47.1583C16.9249 47.1606 15.2159 47.1468 13.5047 47.1697C12.6824 47.1812 12.1059 47.7721 12.1358 48.4959C12.1656 49.1944 12.6135 49.5563 13.5047 49.5609C15.2159 49.57 16.9249 49.5677 18.6361 49.5677C18.6361 50.6488 18.6361 51.7321 18.6361 52.8132C16.9249 52.8155 15.2159 52.8017 13.5047 52.8246C12.6824 52.8361 12.1059 53.427 12.1358 54.1507C12.1656 54.8493 12.6135 55.2089 13.5047 55.2157C15.2159 55.2249 16.9249 55.2226 18.6361 55.2226C18.8497 57.9184 18.156 60.2431 15.8545 61.8898C14.7589 62.6731 13.5139 63.0694 12.1702 63.09C10.4016 63.1175 8.63065 63.1083 6.86201 63.0968C5.81461 63.09 5.43792 62.696 5.43102 61.6402C5.42643 60.5912 5.42643 59.5399 5.42413 58.4864Z" fill="#F7F8F9"/>
<path id="Vector_6" d="M60.8008 78.0551C60.1784 80.9593 57.7918 82.9427 54.8219 82.9794C52.5893 83.0069 50.3567 83.0115 48.1264 82.9771C44.6534 82.9244 41.8534 80.1279 41.8695 76.7748C41.8856 73.4034 44.7522 70.5268 48.1792 70.4787C50.2395 70.4512 52.2999 70.4718 54.3602 70.4741C57.5093 70.4787 59.7626 72.1163 60.7112 75.0914C60.771 75.2746 60.7434 75.4991 60.9409 75.6251C60.918 76.4359 61.0259 77.2558 60.8008 78.0551Z" fill="black"/>
<path id="Vector_7" d="M83.4669 58.4864C83.4669 51.6932 83.4646 44.8977 83.4646 38.1046C84.636 38.1527 85.8052 38.2053 86.9743 38.2511C88.0332 38.2924 88.4398 38.6726 88.4421 39.7009C88.4489 45.5138 88.4489 51.3267 88.4421 57.1374C88.4421 58.065 88.0309 58.4635 87.0662 58.4772C85.8672 58.491 84.6659 58.4841 83.4669 58.4864Z" fill="black"/>
<path id="Vector_8" d="M78.0163 33.6063C77.2123 33.6155 76.4084 33.6223 75.6045 33.6315C74.626 26.1489 71.3529 19.8482 65.7966 14.7292C65.6312 14.5781 65.4406 14.4521 65.2614 14.317C65.2614 13.3092 65.2614 12.3015 65.2637 11.2937C68.4059 13.5085 70.9371 16.3073 73.0227 19.5092C75.8204 23.8059 77.4972 28.5034 78.0163 33.6063Z" fill="#F7F8F9"/>
<path id="Vector_9" d="M13.2842 33.6315C12.4803 33.6223 11.6764 33.6155 10.8724 33.6063C11.9084 24.5869 16.0313 17.2761 23.1312 11.6189C23.285 11.4953 23.4619 11.4013 23.6296 11.2937C23.6296 12.3015 23.6296 13.3069 23.6319 14.3147C20.3794 17.015 17.924 20.3291 16.0796 24.1059C14.6049 27.12 13.7023 30.3082 13.2842 33.6315Z" fill="#F7F8F9"/>
<path id="Vector_10" d="M60.8008 78.0551C61.0259 77.2558 60.9179 76.4381 60.9409 75.6274C62.8359 75.3456 64.7193 75.009 66.4627 74.1684C71.2495 71.8643 74.2493 68.1471 75.3633 62.9434C76.1604 63.1953 76.985 63.0762 77.7981 63.1152C75.91 71.1451 70.9325 76.0396 62.8359 77.7574C62.1675 77.8971 61.4807 77.9566 60.8008 78.0551Z" fill="#F7F8F9"/>
<path id="Vector_11" d="M18.636 43.9152C16.9845 43.9129 15.3307 43.9175 13.6792 43.9083C12.7237 43.9014 12.1081 43.3609 12.138 42.5822C12.1656 41.8333 12.7559 41.3477 13.6792 41.3431C15.3307 41.334 16.9845 41.3363 18.636 41.3363C18.636 42.1951 18.636 43.0563 18.636 43.9152Z" fill="black"/>
<path id="Vector_12" d="M70.2549 41.334C71.9064 41.3362 73.5602 41.3317 75.2117 41.3408C76.1351 41.3454 76.7277 41.8333 76.753 42.5799C76.7805 43.3586 76.1649 43.8991 75.2117 43.906C73.5602 43.9152 71.9064 43.9129 70.2549 43.9129C70.2549 43.0563 70.2549 42.1951 70.2549 41.334Z" fill="black"/>
<path id="Vector_13" d="M18.6361 49.5723C16.9249 49.57 15.2159 49.5746 13.5047 49.5655C12.6135 49.5609 12.1656 49.199 12.1358 48.5004C12.1059 47.779 12.6824 47.1858 13.5047 47.1743C15.2136 47.1514 16.9249 47.1652 18.6361 47.1629C18.6361 47.9645 18.6361 48.7684 18.6361 49.5723Z" fill="black"/>
<path id="Vector_14" d="M70.2549 47.1606C71.9087 47.1629 73.5625 47.1583 75.214 47.1675C76.1672 47.1743 76.7851 47.7194 76.753 48.4981C76.7231 49.2379 76.2591 49.5632 75.214 49.5655C73.5602 49.57 71.9064 49.57 70.2549 49.5723C70.2549 48.7684 70.2549 47.9645 70.2549 47.1606Z" fill="black"/>
<path id="Vector_15" d="M18.6361 55.2272C16.9249 55.2249 15.2159 55.2295 13.5047 55.2203C12.6135 55.2158 12.1656 54.8539 12.1358 54.1553C12.1059 53.4339 12.6824 52.8407 13.5047 52.8292C15.2136 52.8063 16.9249 52.8201 18.6361 52.8178C18.6361 53.6194 18.6361 54.4233 18.6361 55.2272Z" fill="black"/>
<path id="Vector_16" d="M70.2549 52.8177C71.9087 52.82 73.5625 52.8155 75.214 52.8246C76.1672 52.8315 76.7851 53.3766 76.753 54.1553C76.7231 54.8951 76.2591 55.2203 75.214 55.2226C73.5602 55.2272 71.9064 55.2272 70.2549 55.2295C70.2549 54.4233 70.2549 53.6194 70.2549 52.8177Z" fill="black"/>
<path id="Vector_17" d="M44.4972 4.47991C50.3199 4.58527 55.9336 5.60906 61.1729 8.28189C61.8206 8.614 62.2685 9.04687 62.1123 9.81872C61.9378 10.6776 61.1476 11.012 60.238 10.5516C58.7565 9.80269 57.2406 9.13848 55.658 8.64835C52.8236 7.77115 49.9294 7.26727 46.9572 7.03365C42.0464 6.64658 37.3078 7.33598 32.6611 8.84761C31.2761 9.29881 29.9461 9.89201 28.6507 10.5677C27.9019 10.957 27.2564 10.7761 26.9073 10.1256C26.5582 9.47517 26.7718 8.79493 27.5091 8.41244C30.564 6.81836 33.7958 5.75106 37.1975 5.17389C39.6139 4.75476 42.0372 4.45243 44.4972 4.47991Z" fill="black"/>
</g>
<defs>
<clipPath id="clip0_5_211">
<rect width="88" height="83" fill="white" transform="translate(0.446655)"/>
</clipPath>
</defs>
</svg>
