<svg width="54" height="53" viewBox="0 0 54 53" fill="none" xmlns="http://www.w3.org/2000/svg">
<g id="Group 2">
<path id="Arrow 1" d="M17.3926 25.8428C16.8403 25.8428 16.3926 26.2905 16.3926 26.8428C16.3926 27.3951 16.8403 27.8428 17.3926 27.8428L17.3926 25.8428ZM33.0831 27.5499C33.4737 27.1594 33.4737 26.5262 33.0831 26.1357L26.7192 19.7717C26.3286 19.3812 25.6955 19.3812 25.305 19.7717C24.9144 20.1622 24.9144 20.7954 25.305 21.1859L30.9618 26.8428L25.305 32.4996C24.9144 32.8902 24.9144 33.5233 25.305 33.9138C25.6955 34.3044 26.3286 34.3044 26.7192 33.9138L33.0831 27.5499ZM17.3926 27.8428L32.376 27.8428L32.376 25.8428L17.3926 25.8428L17.3926 27.8428Z" fill="white"/>
<path id="Line 1" d="M13.1895 26.8428L8.65453 26.8428" stroke="white" stroke-width="2" stroke-linecap="round"/>
<path id="Line 2" d="M4.45117 26.8428H1.9905" stroke="white" stroke-width="2" stroke-linecap="round"/>
<path id="Ellipse 8" d="M22.3863 8.18376C22.1635 7.43758 22.5871 6.64714 23.3466 6.47523C26.0785 5.85691 28.9118 5.79343 31.6774 6.29419C34.9063 6.87885 37.952 8.2162 40.5676 10.1978C43.1831 12.1794 45.2948 14.7495 46.7316 17.6997C48.1683 20.6498 48.8896 23.8971 48.837 27.1781C48.7843 30.4591 47.9592 33.6815 46.4286 36.5841C44.898 39.4866 42.7049 41.9877 40.0271 43.8843C37.3493 45.781 34.2623 47.02 31.0163 47.5007C28.2361 47.9125 25.4062 47.7582 22.6956 47.0525C21.942 46.8564 21.544 46.0527 21.7906 45.3141V45.3141C22.0371 44.5754 22.8349 44.1823 23.5906 44.3705C25.8789 44.9405 28.2613 45.058 30.6031 44.7112C33.4108 44.2953 36.081 43.2237 38.3971 41.5831C40.7133 39.9426 42.6102 37.7793 43.9342 35.2687C45.2581 32.7581 45.9718 29.9708 46.0173 27.1328C46.0629 24.2949 45.439 21.4862 44.1963 18.9344C42.9535 16.3826 41.127 14.1596 38.8646 12.4455C36.6023 10.7315 33.9679 9.57478 31.175 9.06907C28.8455 8.64728 26.4605 8.68829 24.1551 9.18461C23.3938 9.3485 22.609 8.92994 22.3863 8.18376V8.18376Z" fill="white"/>
</g>
</svg>
