<svg width="53" height="53" viewBox="0 0 53 53" fill="none" xmlns="http://www.w3.org/2000/svg">
<g id="Group 115" opacity="0.5">
<path id="Arrow 1" d="M36.5488 27.2939C37.1011 27.2939 37.5488 26.8462 37.5488 26.2939C37.5488 25.7417 37.1011 25.2939 36.5488 25.2939L36.5488 27.2939ZM20.8583 25.5868C20.4677 25.9774 20.4677 26.6105 20.8583 27.001L27.2222 33.365C27.6128 33.7555 28.2459 33.7555 28.6364 33.365C29.027 32.9745 29.027 32.3413 28.6364 31.9508L22.9796 26.2939L28.6364 20.6371C29.027 20.2466 29.027 19.6134 28.6364 19.2229C28.2459 18.8324 27.6128 18.8324 27.2222 19.2229L20.8583 25.5868ZM36.5488 25.2939L21.5654 25.2939L21.5654 27.2939L36.5488 27.2939L36.5488 25.2939Z" fill="white"/>
<path id="Line 1" d="M40.752 26.2939L45.2869 26.2939" stroke="white" stroke-width="2" stroke-linecap="round"/>
<path id="Line 2" d="M49.4902 26.2939L51.9509 26.2939" stroke="white" stroke-width="2" stroke-linecap="round"/>
<path id="Ellipse 8" d="M31.5551 44.953C31.7779 45.6991 31.3543 46.4896 30.5948 46.6615C27.8629 47.2798 25.0296 47.3433 22.264 46.8425C19.0351 46.2579 15.9894 44.9205 13.3738 42.9389C10.7583 40.9573 8.64656 38.3872 7.20982 35.437C5.77309 32.4869 5.0518 29.2396 5.10444 25.9586C5.15708 22.6776 5.98217 19.4552 7.51281 16.5526C9.04345 13.6501 11.2366 11.1491 13.9143 9.25239C16.5921 7.35571 19.6791 6.11676 22.9251 5.63598C25.7053 5.22419 28.5352 5.37853 31.2458 6.08418C31.9994 6.28036 32.3974 7.08399 32.1509 7.82264V7.82264C31.9043 8.56129 31.1065 8.95446 30.3508 8.76623C28.0625 8.19621 25.6801 8.0787 23.3383 8.42555C20.5306 8.8414 17.8604 9.91305 15.5443 11.5536C13.2281 13.1942 11.3312 15.3574 10.0072 17.868C8.68328 20.3787 7.96961 23.1659 7.92408 26.0039C7.87854 28.8418 8.50243 31.6506 9.74515 34.2023C10.9879 36.7541 12.8145 38.9772 15.0768 40.6912C17.3391 42.4052 19.9735 43.5619 22.7664 44.0676C25.0959 44.4894 27.4809 44.4484 29.7863 43.9521C30.5476 43.7882 31.3324 44.2068 31.5551 44.953V44.953Z" fill="white"/>
</g>
</svg>
