<svg width="119" height="118" viewBox="0 0 119 118" fill="none" xmlns="http://www.w3.org/2000/svg">
<g id="Group 71" opacity="0.6">
<path id="Vector" d="M40.5798 117.752C38.4589 117.073 36.843 115.876 36.3625 113.559C36.2462 113.005 36.2095 112.424 36.2095 111.855C36.2034 76.6444 36.2003 41.4341 36.2065 6.22386C36.2065 3.12364 38.1192 0.852799 40.9991 0.476365C43.625 0.133597 46.1835 1.88416 46.8537 4.53756C47.0006 5.11904 47.022 5.74643 47.022 6.3524C47.0281 41.4862 47.0312 76.6199 47.0282 111.754C47.0282 115.001 46.0243 116.35 42.6395 117.749C41.957 117.752 41.2684 117.752 40.5798 117.752Z" fill="black"/>
<path id="Vector_2" d="M118.02 63.6774C117.353 65.7432 116.206 67.3223 113.959 67.8824C110.596 68.721 107.425 66.5358 107.238 63.0745C107.101 60.5282 107.141 57.9666 107.202 55.4142C107.266 52.721 109.209 50.5634 111.762 50.187C114.351 49.8044 116.796 51.2795 117.727 53.786C117.818 54.0309 117.926 54.2696 118.023 54.5114C118.02 57.5657 118.02 60.62 118.02 63.6774Z" fill="black"/>
<path id="Vector_3" d="M53.9082 59.0674C53.9082 48.1111 53.9021 37.1517 53.9113 26.1953C53.9144 22.838 56.1393 20.405 59.2089 20.3468C62.2234 20.2887 64.5861 22.4708 64.8126 25.5343C64.834 25.8373 64.8279 26.1433 64.8279 26.4493C64.8279 48.1723 64.8309 69.8983 64.8217 91.6213C64.8217 92.267 64.7697 92.9219 64.6534 93.5524C64.1638 96.1599 62.0674 97.8431 59.3558 97.84C56.6535 97.837 54.5632 96.1476 54.0796 93.5279C53.9572 92.8577 53.9144 92.1629 53.9144 91.4805C53.9052 80.6771 53.9052 69.8738 53.9082 59.0674Z" fill="black"/>
<path id="Vector_4" d="M89.4064 59.0346C89.4064 48.0415 89.3972 37.0484 89.4125 26.0554C89.4155 22.6093 91.8761 20.21 95.1845 20.3538C97.5838 20.4578 99.7323 22.3094 100.155 24.6721C100.262 25.2688 100.295 25.8871 100.295 26.493C100.301 48.2129 100.301 69.9328 100.298 91.6527C100.298 94.7437 99.0712 96.7483 96.7177 97.5563C92.9962 98.8325 89.4798 96.2953 89.4186 92.2464C89.3727 89.2319 89.4094 86.2143 89.4094 83.1998C89.4064 75.1416 89.4064 67.0896 89.4064 59.0346Z" fill="black"/>
<path id="Vector_5" d="M29.3367 59.1216C29.3367 66.7574 29.3459 74.3901 29.3336 82.0259C29.3275 85.276 27.6259 87.3939 24.6787 87.8774C21.7744 88.3548 19.0383 86.3931 18.5823 83.4826C18.4936 82.9195 18.4507 82.3441 18.4507 81.7749C18.4446 66.6196 18.4416 51.4644 18.4477 36.3122C18.4477 33.2426 19.9626 31.0942 22.5487 30.4453C26.1141 29.5486 29.3183 32.1439 29.3306 35.9908C29.352 43.7001 29.3367 51.4124 29.3367 59.1216Z" fill="black"/>
<path id="Vector_6" d="M82.5305 59.0467C82.5305 63.5486 82.5673 68.0535 82.5183 72.5554C82.4816 76.0229 79.8404 78.2968 76.4066 77.9234C73.7563 77.6357 71.8221 75.5914 71.7364 72.8492C71.6629 70.4101 71.7058 67.9648 71.7058 65.5226C71.7058 58.8447 71.6905 52.1668 71.7211 45.489C71.7333 43.1477 73.2085 41.2197 75.3967 40.4821C77.5145 39.769 79.8496 40.4301 81.2941 42.1715C82.1847 43.2426 82.5489 44.4882 82.5428 45.8807C82.5244 50.2694 82.5367 54.658 82.5367 59.0467C82.5305 59.0467 82.5305 59.0467 82.5305 59.0467Z" fill="black"/>
<path id="Vector_7" d="M11.5353 59.0963C11.5353 60.394 11.6027 61.6947 11.5231 62.9862C11.3364 65.967 9.15127 68.0175 6.22244 68.042C3.23545 68.0665 0.903405 66.0068 0.765685 63.0137C0.643268 60.3879 0.649389 57.7467 0.762625 55.1178C0.885042 52.3022 3.35481 50.1323 6.19795 50.1446C9.00743 50.1599 11.3456 52.2899 11.5231 55.0902C11.6057 56.4215 11.5353 57.762 11.5353 59.0963Z" fill="black"/>
</g>
</svg>
