<svg width="71" height="50" viewBox="0 0 71 50" fill="none" xmlns="http://www.w3.org/2000/svg">
<g id="Group 11">
<path id="Vector" d="M0.299805 23.0028C0.480624 21.6767 0.613956 20.3416 0.851395 19.0247C2.108 12.0166 5.24403 5.96554 10.1846 0.845977C10.2924 0.734563 10.4129 0.634107 10.4878 0.566528C11.4467 1.53638 12.3837 2.48248 13.3426 3.45051C7.53441 9.45408 4.41847 16.7088 4.41847 25.189C4.41847 33.6675 7.53441 40.9221 13.3809 46.9659C12.4257 47.9211 11.4942 48.8526 10.3654 49.9796C10.2376 49.775 10.1061 49.4718 9.8942 49.2453C4.29062 43.2418 1.09797 36.1679 0.416698 27.9726C0.40026 27.7716 0.339987 27.5762 0.299805 27.3771C0.299805 25.9196 0.299805 24.4621 0.299805 23.0028Z" fill="white"/>
<path id="Vector_2" d="M35.3258 16.5608C40.1093 16.5718 43.943 20.4366 43.9266 25.2328C43.9101 30.0127 40.0325 33.8446 35.2381 33.819C30.4875 33.7935 26.6683 29.9415 26.6702 25.178C26.6738 20.3891 30.5276 16.5517 35.3258 16.5608Z" fill="white"/>
<path id="Vector_3" d="M57.2141 3.39756C58.1785 2.43319 59.11 1.50352 60.0415 0.573853C73.3838 13.1527 74.0376 36.3195 60.0798 49.8006C59.1355 48.8581 58.1913 47.9175 57.247 46.9769C69.3582 34.9314 69.0167 15.1727 57.2141 3.39756Z" fill="white"/>
<path id="Vector_4" d="M19.6218 40.7815C18.6392 41.7605 17.7077 42.6902 16.7744 43.6217C6.89322 34.2702 6.17725 17.0741 16.7159 6.78564C17.6565 7.72992 18.5953 8.67238 19.5707 9.65136C15.4137 13.9417 13.1927 19.1471 13.1963 25.2055C13.2 31.2383 15.41 36.4254 19.6218 40.7815Z" fill="white"/>
<path id="Vector_5" d="M53.8789 43.5998C52.9292 42.6646 51.9794 41.7313 51.0315 40.7961C59.7912 32.1698 59.2707 17.7133 51.068 9.64587C52.0105 8.70889 52.9548 7.77009 53.9009 6.82947C63.782 16.2193 64.3409 33.4099 53.8789 43.5998Z" fill="white"/>
<path id="Vector_6" d="M25.8063 34.5607C24.8365 35.5305 23.9068 36.4602 22.9753 37.3917C16.4494 31.379 15.9179 19.7317 22.9479 12.9756C23.8849 13.9253 24.8219 14.8733 25.7607 15.823C20.526 21.1581 20.8749 29.5799 25.8063 34.5607Z" fill="white"/>
<path id="Vector_7" d="M44.8179 15.8248C45.7877 14.8531 46.7156 13.9216 47.6452 12.9883C53.9264 18.8622 54.8707 30.2136 47.7402 37.3587C46.7868 36.4071 45.8334 35.4537 44.8781 34.4985C49.9228 29.3314 49.868 20.9827 44.8179 15.8248Z" fill="white"/>
</g>
</svg>
