<svg width="51" height="50" viewBox="0 0 51 50" fill="none" xmlns="http://www.w3.org/2000/svg">
<g id="Group 10">
<path id="Vector" d="M0.899658 24.4148C0.960858 24.2694 1.02588 24.1241 1.07943 23.9749C1.58815 22.5405 3.06077 21.657 4.5066 21.9132C6.06337 22.1886 7.15348 23.4738 7.14966 25.0191C7.14201 26.5567 6.02894 27.8381 4.47218 28.0944C3.02634 28.3315 1.56138 27.4288 1.07178 25.9906C1.01058 25.8223 0.957033 25.6541 0.899658 25.4858C0.899658 25.13 0.899658 24.7705 0.899658 24.4148Z" fill="white"/>
<path id="Vector_2" d="M22.1091 32.4548C17.7946 30.0068 16.9416 25.5889 17.959 22.4678C19.0874 19.0023 22.2774 16.6691 25.9188 16.6806C29.5602 16.6921 32.7349 19.0329 33.8441 22.5137C34.8654 25.7152 33.9092 30.068 29.7093 32.4395C29.87 32.4968 29.9962 32.5427 30.1224 32.581C33.8021 33.6137 36.2615 36.7693 36.3112 40.5866C36.3457 43.3024 36.3227 46.0181 36.3189 48.7377C36.3189 49.6212 35.9211 49.9999 35.026 49.9999C28.9405 49.9999 22.8588 49.9999 16.7733 49.9999C15.8591 49.9999 15.4766 49.6174 15.4766 48.6879C15.4728 46.0678 15.4728 43.4515 15.4766 40.8314C15.4843 36.7808 17.9476 33.5793 21.8567 32.5274C21.9102 32.5083 21.9676 32.4892 22.1091 32.4548Z" fill="white"/>
<path id="Vector_3" d="M42.5651 24.6213C42.5383 27.6928 41.9301 30.244 40.6985 32.6461C40.4078 33.2122 39.987 33.4532 39.4974 33.3576C38.7669 33.2122 38.4418 32.4893 38.8128 31.7549C39.4286 30.5271 39.9029 29.2572 40.1706 27.907C40.8056 24.7246 40.4193 21.6685 39.0537 18.7309C38.9696 18.5549 38.874 18.3828 38.7936 18.2069C38.5144 17.591 38.6865 17.0058 39.2182 16.7381C39.7499 16.4703 40.3351 16.6769 40.6488 17.2659C41.5514 18.9757 42.1405 20.7964 42.3929 22.7127C42.4924 23.47 42.5306 24.2312 42.5651 24.6213Z" fill="white"/>
<path id="Vector_4" d="M9.22278 25.3596C9.25338 22.2881 9.86155 19.7178 11.12 17.3119C11.4107 16.7572 11.8429 16.5316 12.3401 16.654C13.0439 16.8299 13.3423 17.5222 12.9789 18.2452C12.3593 19.4691 11.8888 20.7429 11.621 22.0931C10.9861 25.2754 11.3686 28.3316 12.7417 31.2692C12.8259 31.4451 12.9215 31.6172 13.0018 31.7932C13.2811 32.409 13.1089 32.9942 12.5773 33.262C12.0418 33.5297 11.4604 33.327 11.1467 32.7341C10.2479 31.0397 9.66647 29.2343 9.40638 27.3371C9.29928 26.5606 9.2572 25.7803 9.22278 25.3596Z" fill="white"/>
<path id="Vector_5" d="M25.5133 8.32703C28.5848 8.3538 31.1398 8.96197 33.5381 10.1936C34.0851 10.4767 34.3337 10.8783 34.261 11.3449C34.1463 12.0984 33.4195 12.4083 32.643 12.0946C31.5338 11.6471 30.4284 11.1346 29.2732 10.8477C25.8805 10.0024 22.5948 10.4078 19.4507 11.9301C19.3054 11.999 19.16 12.0793 19.0109 12.1405C18.4448 12.37 17.8863 12.1826 17.63 11.6815C17.3661 11.1613 17.5497 10.5723 18.112 10.2739C19.8332 9.35594 21.6654 8.75925 23.6008 8.50297C24.362 8.40353 25.127 8.36145 25.5133 8.32703Z" fill="white"/>
<path id="Vector_6" d="M10.2631 6.25379C11.9882 6.24997 13.3957 7.65756 13.3957 9.37879C13.3957 11.1 11.9805 12.5076 10.2554 12.5C8.55333 12.4923 7.15722 11.0962 7.14957 9.39792C7.14192 7.66903 8.54186 6.25762 10.2631 6.25379Z" fill="white"/>
<path id="Vector_7" d="M41.5093 6.25379C43.2344 6.24997 44.642 7.65756 44.642 9.37879C44.642 11.1 43.2268 12.5076 41.5017 12.5C39.7996 12.4923 38.4035 11.0962 38.3958 9.39792C38.3843 7.67286 39.7881 6.25762 41.5093 6.25379Z" fill="white"/>
<path id="Vector_8" d="M13.3959 40.5982C13.4074 42.3232 12.0036 43.7385 10.2862 43.7461C8.56498 43.75 7.15356 42.3424 7.15356 40.6211C7.15356 38.9152 8.54203 37.5152 10.2403 37.5C11.9654 37.4808 13.3844 38.8769 13.3959 40.5982Z" fill="white"/>
<path id="Vector_9" d="M41.5016 43.7461C39.7804 43.7385 38.3804 42.3194 38.3919 40.5944C38.4034 38.8731 39.8263 37.4808 41.5513 37.5C43.2496 37.5153 44.6381 38.919 44.6343 40.6249C44.6381 42.3462 43.2267 43.75 41.5016 43.7461Z" fill="white"/>
<path id="Vector_10" d="M50.8882 25C50.8882 26.7212 49.4768 28.1288 47.7517 28.1212C46.0305 28.1135 44.6306 26.6983 44.642 24.9732C44.6535 23.2711 46.0496 21.8788 47.7517 21.875C49.4806 21.8712 50.8882 23.2749 50.8882 25Z" fill="white"/>
<path id="Vector_11" d="M38.392 25.3442C38.3767 26.8972 37.975 28.7025 37.1412 30.4123C36.8276 31.0587 36.2844 31.3035 35.7221 31.0587C35.1407 30.8025 34.9495 30.2096 35.2593 29.5402C36.6631 26.5108 36.6631 23.4853 35.2593 20.4559C34.9495 19.7865 35.1446 19.1937 35.726 18.9374C36.2882 18.6926 36.8276 18.9374 37.1412 19.5876C37.9597 21.2592 38.392 23.1334 38.392 25.3442Z" fill="white"/>
<path id="Vector_12" d="M13.3958 24.9618C13.4149 23.0838 13.8203 21.2784 14.658 19.5724C14.9716 18.9337 15.5224 18.6889 16.0847 18.9451C16.647 19.1976 16.8459 19.7905 16.5475 20.4292C15.1246 23.4739 15.1246 26.5109 16.5399 29.5594C16.8382 30.202 16.6508 30.7911 16.1 31.0512C15.5454 31.3151 14.9755 31.0741 14.6656 30.443C13.8165 28.7179 13.4072 26.8973 13.3958 24.9618Z" fill="white"/>
<path id="Vector_13" d="M25.8767 12.5C27.7739 12.5115 29.5831 12.9131 31.289 13.7469C31.9584 14.0721 32.2109 14.6305 31.9431 15.2004C31.6754 15.7665 31.0825 15.9386 30.4055 15.625C27.3914 14.2251 24.3812 14.2327 21.3671 15.6288C20.801 15.8927 20.3152 15.8124 19.9939 15.4338C19.6841 15.0704 19.642 14.5464 19.9404 14.1753C20.0857 13.9956 20.2999 13.8502 20.5141 13.7469C22.2047 12.9169 23.9987 12.5153 25.8767 12.5Z" fill="white"/>
<path id="Vector_14" d="M8.05615 14.1409C7.59332 15.0933 7.08078 16.0381 6.67151 17.0211C6.26606 17.9888 5.96771 18.9986 5.61964 19.9931C4.98852 19.9166 4.33445 19.8401 3.61536 19.7521C4.1585 17.3386 5.10709 15.078 6.41906 12.959C6.98133 13.3606 7.51682 13.7469 8.05615 14.1409Z" fill="white"/>
<path id="Vector_15" d="M43.6819 14.1792C44.2671 13.7546 44.7988 13.3683 45.3649 12.959C46.6807 15.0627 47.6063 17.3271 48.18 19.756C47.4954 19.8363 46.8451 19.9128 46.1184 20.0008C45.5905 17.9735 44.8103 15.996 43.6819 14.1792Z" fill="white"/>
<path id="Vector_16" d="M8.10583 35.8247C7.53208 36.2378 7.00806 36.6165 6.42284 37.0372C5.10705 34.9526 4.17759 32.6844 3.60767 30.2441C4.29234 30.1637 4.94258 30.0834 5.6655 29.9993C6.19335 32.0303 6.98894 34.004 8.10583 35.8247Z" fill="white"/>
<path id="Vector_17" d="M46.1681 30.0068C46.8145 30.0833 47.4686 30.1598 48.1265 30.2363C48.0844 31.4947 46.5429 35.2891 45.3572 37.0257C44.814 36.6355 44.2709 36.2415 43.7316 35.8514C44.1867 34.9219 44.6993 33.9848 45.1086 33.0018C45.5178 32.0264 45.8238 31.0013 46.1681 30.0068Z" fill="white"/>
<g id="Group">
<path id="Vector_18" d="M26.3816 0.00382497C26.5499 0.0611995 26.7182 0.114749 26.8865 0.172124C28.317 0.657895 29.2274 2.13051 28.9864 3.57635C28.7263 5.12928 27.445 6.24618 25.9111 6.25C24.3697 6.25765 23.0807 5.15988 22.8091 3.60695C22.5528 2.16111 23.4402 0.688495 24.8707 0.179774C25.0199 0.126224 25.1653 0.0611995 25.3106 0C25.6663 0.00382497 26.0259 0.00382497 26.3816 0.00382497Z" fill="white"/>
<path id="Vector_19" d="M0.899658 24.4148C0.960858 24.2694 1.02588 24.1241 1.07943 23.9749C1.58815 22.5405 3.06077 21.657 4.5066 21.9132C6.06337 22.1886 7.15348 23.4738 7.14966 25.0191C7.14201 26.5567 6.02894 27.8381 4.47218 28.0944C3.02634 28.3315 1.56138 27.4288 1.07178 25.9906C1.01058 25.8223 0.957033 25.6541 0.899658 25.4858C0.899658 25.13 0.899658 24.7705 0.899658 24.4148Z" fill="white"/>
<path id="Vector_20" d="M22.1091 32.4548C17.7946 30.0068 16.9416 25.5889 17.959 22.4678C19.0874 19.0023 22.2774 16.6691 25.9188 16.6806C29.5602 16.6921 32.7349 19.0329 33.8441 22.5137C34.8654 25.7152 33.9092 30.068 29.7093 32.4395C29.87 32.4968 29.9962 32.5427 30.1224 32.581C33.8021 33.6137 36.2615 36.7693 36.3112 40.5866C36.3457 43.3024 36.3227 46.0181 36.3189 48.7377C36.3189 49.6212 35.9211 49.9999 35.026 49.9999C28.9405 49.9999 22.8588 49.9999 16.7733 49.9999C15.8591 49.9999 15.4766 49.6174 15.4766 48.6879C15.4728 46.0678 15.4728 43.4515 15.4766 40.8314C15.4843 36.7808 17.9476 33.5793 21.8567 32.5274C21.9102 32.5083 21.9676 32.4892 22.1091 32.4548Z" fill="white"/>
<path id="Vector_21" d="M42.5651 24.6213C42.5383 27.6928 41.9301 30.244 40.6985 32.6461C40.4078 33.2122 39.987 33.4532 39.4974 33.3576C38.7669 33.2122 38.4418 32.4893 38.8128 31.7549C39.4286 30.5271 39.9029 29.2572 40.1706 27.907C40.8056 24.7246 40.4193 21.6685 39.0537 18.7309C38.9696 18.5549 38.874 18.3828 38.7936 18.2069C38.5144 17.591 38.6865 17.0058 39.2182 16.7381C39.7499 16.4703 40.3351 16.6769 40.6488 17.2659C41.5514 18.9757 42.1405 20.7964 42.3929 22.7127C42.4924 23.47 42.5306 24.2312 42.5651 24.6213Z" fill="white"/>
<path id="Vector_22" d="M9.22278 25.3596C9.25338 22.2881 9.86155 19.7178 11.12 17.3119C11.4107 16.7572 11.8429 16.5316 12.3401 16.654C13.0439 16.8299 13.3423 17.5222 12.9789 18.2452C12.3593 19.4691 11.8888 20.7429 11.621 22.0931C10.9861 25.2754 11.3686 28.3316 12.7417 31.2692C12.8259 31.4451 12.9215 31.6172 13.0018 31.7932C13.2811 32.409 13.1089 32.9942 12.5773 33.262C12.0418 33.5297 11.4604 33.327 11.1467 32.7341C10.2479 31.0397 9.66647 29.2343 9.40638 27.3371C9.29928 26.5606 9.2572 25.7803 9.22278 25.3596Z" fill="white"/>
<path id="Vector_23" d="M25.5133 8.32703C28.5848 8.3538 31.1398 8.96197 33.5381 10.1936C34.0851 10.4767 34.3337 10.8783 34.261 11.3449C34.1463 12.0984 33.4195 12.4083 32.643 12.0946C31.5338 11.6471 30.4284 11.1346 29.2732 10.8477C25.8805 10.0024 22.5948 10.4078 19.4507 11.9301C19.3054 11.999 19.16 12.0793 19.0109 12.1405C18.4448 12.37 17.8863 12.1826 17.63 11.6815C17.3661 11.1613 17.5497 10.5723 18.112 10.2739C19.8332 9.35594 21.6654 8.75925 23.6008 8.50297C24.362 8.40353 25.127 8.36145 25.5133 8.32703Z" fill="white"/>
<path id="Vector_24" d="M10.2632 6.25379C11.9883 6.24997 13.3959 7.65756 13.3959 9.37879C13.3959 11.1 11.9806 12.5076 10.2556 12.5C8.55345 12.4923 7.15734 11.0962 7.14969 9.39792C7.14204 7.66903 8.54198 6.25762 10.2632 6.25379Z" fill="white"/>
<path id="Vector_25" d="M41.5093 6.25379C43.2344 6.24997 44.642 7.65756 44.642 9.37879C44.642 11.1 43.2268 12.5076 41.5017 12.5C39.7996 12.4923 38.4035 11.0962 38.3958 9.39792C38.3843 7.67286 39.7881 6.25762 41.5093 6.25379Z" fill="white"/>
<path id="Vector_26" d="M13.3958 40.5982C13.4073 42.3232 12.0035 43.7385 10.2861 43.7461C8.56486 43.75 7.15344 42.3424 7.15344 40.6211C7.15344 38.9152 8.54191 37.5152 10.2402 37.5C11.9653 37.4808 13.3843 38.8769 13.3958 40.5982Z" fill="white"/>
<path id="Vector_27" d="M41.5016 43.7461C39.7804 43.7385 38.3804 42.3194 38.3919 40.5944C38.4034 38.8731 39.8263 37.4808 41.5513 37.5C43.2496 37.5153 44.6381 38.919 44.6343 40.6249C44.6381 42.3462 43.2267 43.75 41.5016 43.7461Z" fill="white"/>
<path id="Vector_28" d="M50.8882 25C50.8882 26.7212 49.4768 28.1288 47.7517 28.1212C46.0305 28.1135 44.6306 26.6983 44.642 24.9732C44.6535 23.2711 46.0496 21.8788 47.7517 21.875C49.4806 21.8712 50.8882 23.2749 50.8882 25Z" fill="white"/>
<path id="Vector_29" d="M38.392 25.3442C38.3767 26.8972 37.975 28.7025 37.1412 30.4123C36.8276 31.0587 36.2844 31.3035 35.7221 31.0587C35.1407 30.8025 34.9495 30.2096 35.2593 29.5402C36.6631 26.5108 36.6631 23.4853 35.2593 20.4559C34.9495 19.7865 35.1446 19.1937 35.726 18.9374C36.2882 18.6926 36.8276 18.9374 37.1412 19.5876C37.9597 21.2592 38.392 23.1334 38.392 25.3442Z" fill="white"/>
<path id="Vector_30" d="M13.3959 24.9618C13.415 23.0838 13.8204 21.2784 14.6581 19.5724C14.9718 18.9337 15.5226 18.6889 16.0848 18.9451C16.6471 19.1976 16.846 19.7905 16.5476 20.4292C15.1248 23.4739 15.1248 26.5109 16.54 29.5594C16.8383 30.202 16.6509 30.7911 16.1001 31.0512C15.5455 31.3151 14.9756 31.0741 14.6658 30.443C13.8166 28.7179 13.4073 26.8973 13.3959 24.9618Z" fill="white"/>
<path id="Vector_31" d="M25.8767 12.5C27.7739 12.5115 29.5831 12.9131 31.289 13.7469C31.9584 14.0721 32.2109 14.6305 31.9431 15.2004C31.6754 15.7665 31.0825 15.9386 30.4055 15.625C27.3914 14.2251 24.3812 14.2327 21.3671 15.6288C20.801 15.8927 20.3152 15.8124 19.9939 15.4338C19.6841 15.0704 19.642 14.5464 19.9404 14.1753C20.0857 13.9956 20.2999 13.8502 20.5141 13.7469C22.2047 12.9169 23.9987 12.5153 25.8767 12.5Z" fill="white"/>
<path id="Vector_32" d="M31.1283 2.7157C33.5495 3.25884 35.8062 4.21126 37.9367 5.52323C37.5313 6.0855 37.1373 6.63247 36.7242 7.20621C34.9227 6.12375 32.9719 5.29373 30.8873 4.78501C30.9677 4.08886 31.048 3.42332 31.1283 2.7157Z" fill="white"/>
<path id="Vector_33" d="M8.05615 14.1409C7.59332 15.0933 7.08078 16.0381 6.67151 17.0211C6.26606 17.9888 5.96771 18.9986 5.61964 19.9931C4.98852 19.9166 4.33445 19.8401 3.61536 19.7521C4.1585 17.3386 5.10709 15.078 6.41906 12.959C6.98133 13.3606 7.51682 13.7469 8.05615 14.1409Z" fill="white"/>
<path id="Vector_34" d="M43.6819 14.1792C44.2671 13.7546 44.7988 13.3683 45.3649 12.959C46.6807 15.0627 47.6063 17.3271 48.18 19.756C47.4954 19.8363 46.8451 19.9128 46.1184 20.0008C45.5905 17.9735 44.8103 15.996 43.6819 14.1792Z" fill="white"/>
<path id="Vector_35" d="M8.10583 35.8247C7.53208 36.2378 7.00806 36.6165 6.42284 37.0372C5.10705 34.9526 4.17759 32.6844 3.60767 30.2441C4.29234 30.1637 4.94258 30.0834 5.6655 29.9993C6.19335 32.0303 6.98894 34.004 8.10583 35.8247Z" fill="white"/>
<path id="Vector_36" d="M46.1681 30.0068C46.8145 30.0833 47.4686 30.1598 48.1265 30.2363C48.0844 31.4947 46.5429 35.2891 45.3572 37.0257C44.814 36.6355 44.2709 36.2415 43.7316 35.8514C44.1867 34.9219 44.6993 33.9848 45.1086 33.0018C45.5178 32.0264 45.8238 31.0013 46.1681 30.0068Z" fill="white"/>
<path id="Vector_37" d="M20.6556 2.7157C20.7359 3.41567 20.8124 4.06974 20.8928 4.77736C18.8388 5.29755 16.8727 6.10845 15.0712 7.20621C14.6581 6.63247 14.2717 6.1008 13.8586 5.52705C15.9662 4.20744 18.2344 3.27414 20.6556 2.7157Z" fill="white"/>
</g>
</g>
</svg>
