<svg width="71" height="81" viewBox="0 0 71 81" fill="none" xmlns="http://www.w3.org/2000/svg">
<g id="Frame" opacity="0.6" clip-path="url(#clip0_5_317)">
<path id="Vector" d="M1.75726 80.9998C0.398926 80.3613 -0.0215115 79.2789 4.93395e-05 77.807C0.064732 74.0406 0.0431711 70.2633 0.0108298 66.4969C4.93391e-05 65.5986 0.26956 64.8626 0.830143 64.1807C2.74906 61.8429 4.66798 59.4943 6.55456 57.1241C7.14748 56.3773 7.88055 55.9985 8.79689 55.8145C13.7343 54.8188 18.661 53.7906 23.6631 52.7516C23.6631 51.0199 23.6739 49.3098 23.6523 47.5998C23.6523 47.4482 23.5122 47.2642 23.3936 47.1344C20.968 44.5044 19.545 41.3873 19.0599 37.8915C18.0465 37.978 17.0655 38.1729 16.0953 38.1187C12.6347 37.9347 9.69167 35.1749 9.54074 31.7006C9.36825 27.7069 9.31435 23.7024 10.263 19.752C12.6024 10.0112 20.9572 2.11032 30.8106 0.411097C44.9329 -2.0241 58.0096 6.79672 60.9419 20.8559C61.4162 23.1504 61.3947 25.564 61.4917 27.9342C61.5564 29.4062 61.5672 30.8997 61.3516 32.35C60.8988 35.4346 58.3007 37.7399 55.2067 38.1512C54.1287 38.2919 53.0722 38.6707 52.0157 38.9954C51.8324 39.0495 51.6707 39.3742 51.6168 39.5907C50.9484 42.4263 49.6224 44.894 47.6927 47.0586C47.5202 47.2534 47.3478 47.5456 47.3478 47.8054C47.3154 49.3856 47.337 50.9657 47.337 52.6325C49.1373 53.0221 50.9269 53.4118 52.7056 53.7906C55.9613 54.4832 59.2278 55.1759 62.4835 55.8578C63.292 56.031 63.9281 56.4098 64.4455 57.0591C66.3429 59.451 68.2618 61.8213 70.2023 64.1916C70.7629 64.8842 71.0108 65.6202 71 66.5185C70.9785 70.285 70.9461 74.0622 71.0108 77.8287C71.0324 79.3006 70.6119 80.3829 69.2536 81.0215C46.744 80.9998 24.256 80.9998 1.75726 80.9998ZM33.1391 76.2268C33.1391 75.9779 33.1391 75.729 33.1391 75.48C33.1391 73.1855 33.1283 70.8911 33.1499 68.5966C33.1607 68.0987 33.0098 67.7848 32.6001 67.4818C30.0236 65.5661 27.4794 63.6179 24.9029 61.7022C24.0512 61.0637 23.6092 60.2844 23.6739 59.2129C23.7062 58.7043 23.6739 58.1847 23.6739 57.6111C19.1353 58.5527 14.7154 59.4619 10.3062 60.3927C10.0798 60.4359 9.84259 60.6308 9.68089 60.8148C8.1285 62.7088 6.5869 64.6137 5.06686 66.5294C4.90515 66.735 4.76501 67.038 4.76501 67.2978C4.74344 70.1767 4.75422 73.0448 4.75422 75.9238C4.75422 76.0212 4.79735 76.1186 4.82969 76.2268C14.241 76.2268 23.62 76.2268 33.1391 76.2268ZM66.1596 76.2268C66.192 76.0861 66.2459 75.9454 66.2459 75.7939C66.2459 72.9474 66.2567 70.101 66.2351 67.2437C66.2351 66.9623 66.0734 66.6376 65.8901 66.4103C64.4348 64.5704 62.9794 62.7413 61.4701 60.9446C61.2006 60.6199 60.7371 60.3602 60.3166 60.2628C57.449 59.6134 54.5707 59.0073 51.7031 58.4012C50.28 58.0982 48.8462 57.8059 47.337 57.4921C47.337 57.9683 47.3046 58.3363 47.3478 58.6934C47.5202 60.1654 46.9058 61.1719 45.7091 62.0161C43.2296 63.7911 40.8364 65.6851 38.3892 67.5034C38.0011 67.7848 37.8717 68.077 37.8717 68.5533C37.8933 70.8694 37.8825 73.1964 37.8825 75.5125C37.8825 75.7398 37.9149 75.9671 37.9256 76.2052C47.3585 76.2268 56.7375 76.2268 66.1596 76.2268ZM23.523 33.3133C24.4501 33.1077 25.1293 32.9994 25.7761 32.8046C30.7782 31.3002 34.1094 27.8909 36.3301 23.2803C37.3543 21.1698 39.2193 20.8992 40.7286 22.6958C41.6126 23.7457 42.475 24.8063 43.359 25.8454C43.5099 26.0293 43.7579 26.235 43.9735 26.2458C45.0623 26.2891 46.1619 26.2675 47.3585 26.2675C47.2939 25.6289 47.2615 25.0877 47.186 24.5466C46.4638 18.9943 41.7096 14.5785 36.2116 14.3404C30.3147 14.0807 25.043 17.8687 24.0512 23.5184C23.5014 26.6571 23.6847 29.9148 23.523 33.3133ZM47.2938 31.0188C45.7307 31.0188 44.2645 30.9971 42.7984 31.0296C41.8821 31.0404 41.1813 30.7049 40.6208 29.9906C40.1356 29.3737 39.629 28.7892 39.0899 28.1399C37.3112 30.8456 35.1982 33.0968 32.5785 34.8393C29.9589 36.5819 27.0697 37.5992 23.9973 38.0322C24.3423 42.5346 29.1396 47.0694 34.0016 47.5998C39.284 48.1734 44.9653 44.9589 46.1835 40.6838C45.9894 40.7271 45.8169 40.7596 45.6444 40.8137C43.3266 41.4739 41.0089 42.1558 38.6911 42.8051C37.268 43.2056 36.0175 42.5454 35.6186 41.225C35.2305 39.937 35.9636 38.6815 37.3651 38.2486C38.4215 37.9239 39.478 37.6317 40.5345 37.3287C42.7984 36.6793 45.0515 36.0299 47.3046 35.3805C47.2939 33.8977 47.2938 32.5124 47.2938 31.0188ZM20.1487 19.8061C23.1888 13.4421 28.1693 9.5999 35.4893 9.61072C42.8307 9.61072 47.8329 13.4854 50.8406 19.8061C52.4469 19.5247 53.9885 19.2433 55.5086 18.9727C53.374 12.0243 45.6983 4.28576 34.5298 4.72951C25.9486 5.07585 16.4941 12.2516 15.5023 18.9835C17.0224 19.2433 18.5424 19.5247 20.1487 19.8061ZM42.5936 50.8575C37.8071 52.9788 33.1283 52.9464 28.4065 50.8683C28.4065 52.2862 28.4065 53.5741 28.4065 54.8621C28.4065 56.0201 28.0723 57.3622 28.5359 58.293C29.021 59.2454 30.2931 59.8082 31.231 60.5225C32.6432 61.6048 34.077 62.6655 35.5108 63.7478C37.8071 62.0161 40.0602 60.3277 42.2917 58.6177C42.4534 58.4986 42.5828 58.2389 42.5828 58.0332C42.6044 55.6846 42.5936 53.336 42.5936 50.8575ZM18.9413 28.6702C18.9413 27.8585 18.9628 27.0359 18.9305 26.2242C18.8766 24.9362 17.8525 23.9188 16.6127 23.8972C15.3514 23.8756 14.2518 24.9146 14.2195 26.235C14.1871 27.8368 14.1871 29.4494 14.2195 31.0513C14.241 32.4041 15.2759 33.3999 16.5804 33.3999C17.8848 33.3999 18.8982 32.4041 18.9305 31.0404C18.9628 30.2504 18.9413 29.4603 18.9413 28.6702ZM56.7806 28.6702C56.7806 27.8585 56.8022 27.0359 56.7699 26.2242C56.716 24.9362 55.6918 23.9188 54.4521 23.8972C53.1908 23.8756 52.0911 24.9146 52.0588 26.235C52.0265 27.8368 52.0265 29.4494 52.0588 31.0513C52.0804 32.4041 53.1153 33.3999 54.4197 33.3999C55.7242 33.3999 56.7375 32.4041 56.7699 31.0404C56.8022 30.2504 56.7806 29.4603 56.7806 28.6702Z" fill="white"/>
<path id="Vector_2" d="M53.1152 66.7244C54.3227 66.7244 55.5301 66.7027 56.7375 66.7352C58.1497 66.7676 59.1631 67.7742 59.1523 69.1054C59.1415 70.4258 58.1066 71.454 56.7051 71.4757C54.2903 71.4973 51.8755 71.4973 49.4715 71.4757C48.07 71.4649 47.0351 70.4367 47.0135 69.1163C46.992 67.7525 48.0269 66.746 49.493 66.7244C50.7004 66.7135 51.9078 66.7244 53.1152 66.7244Z" fill="white"/>
</g>
<defs>
<clipPath id="clip0_5_317">
<rect width="71" height="81" fill="white"/>
</clipPath>
</defs>
</svg>
