<svg width="67" height="84" viewBox="0 0 67 84" fill="none" xmlns="http://www.w3.org/2000/svg">
<g id="Group" opacity="0.6">
<path id="Vector" d="M66.8388 35.2176C66.8388 40.3727 66.7982 45.5278 66.8591 50.7032C66.8794 52.0834 66.5547 53.3011 65.9052 54.4985C62.1505 61.4802 57.239 67.5689 51.3329 72.8458C46.5837 77.0876 41.3069 80.5379 35.5023 83.1763C34.2034 83.7649 32.9856 83.7649 31.6867 83.1763C17.9668 76.8847 7.90018 66.7977 0.83729 53.5649C0.492263 52.9358 0.309602 52.1239 0.309602 51.3933C0.289307 40.5757 0.289307 29.7784 0.289307 19.0014C0.289307 16.8704 0.999655 15.9976 3.04952 15.4091C9.01645 13.6839 14.5369 10.944 19.9152 7.91997C23.7511 5.76863 27.5058 3.47521 31.2402 1.1818C32.803 0.207611 34.1628 0.248203 35.7053 1.26299C43.3161 6.17454 51.1503 10.6802 59.6136 13.9884C61.0748 14.5567 62.597 15.0437 64.0989 15.47C66.1691 16.0788 66.8388 16.8907 66.8388 19.0826C66.8388 24.4609 66.8388 29.8393 66.8388 35.2176ZM61.0748 20.8483C58.9641 20.0162 56.8939 19.2652 54.8644 18.4128C47.7609 15.3685 41.0836 11.5123 34.5281 7.43287C33.9395 7.06755 33.5336 7.04725 32.9247 7.43287C26.9578 11.1876 20.8488 14.6987 14.4151 17.601C11.797 18.7782 9.11792 19.7929 6.4186 20.9092C6.4186 20.9295 6.37801 21.0107 6.37801 21.1122C6.37801 30.9759 6.37801 40.8598 6.37801 50.7235C6.37801 51.028 6.47949 51.3527 6.62156 51.6166C12.832 62.6168 21.2953 71.2628 32.6609 76.9658C33.4524 77.3718 34.0816 77.3312 34.8528 76.9253C46.056 71.2831 54.4382 62.7589 60.6283 51.9413C60.9125 51.4542 61.0546 50.825 61.0546 50.2567C61.0748 40.7584 61.0748 31.2803 61.0748 21.7819C61.0748 21.4572 61.0748 21.1527 61.0748 20.8483Z" fill="white"/>
<path id="Vector_2" d="M30.7126 46.1166C34.995 41.8342 39.1962 37.6127 43.3974 33.4318C44.6151 32.214 46.0764 31.9908 47.3347 32.8229C49.0193 33.9392 49.2425 36.0499 47.7609 37.5518C46.1779 39.1754 44.5542 40.7788 42.9306 42.3822C39.663 45.6498 36.3954 48.9174 33.1278 52.185C31.4432 53.8695 29.8804 53.8695 28.1959 52.2053C25.3342 49.3436 22.4725 46.4819 19.6108 43.6202C18.5758 42.5851 18.3728 41.3065 18.9411 40.1496C19.5094 38.9928 20.7271 38.2215 21.9651 38.4651C22.6958 38.6072 23.4467 39.0334 23.9947 39.5408C26.0243 41.4486 27.9524 43.4578 29.921 45.4265C30.1849 45.6295 30.4081 45.8527 30.7126 46.1166Z" fill="white"/>
</g>
</svg>
